<mxfile host="app.diagrams.net" agent="Mozilla/5.0 (Windows NT 10.0; Win64; x64) AppleWebKit/537.36 (KHTML, like Gecko) Chrome/128.0.0.0 Safari/537.36 OPR/114.0.0.0" version="24.8.3">
  <diagram name="Page-1" id="wGOMfE-xH71Pbg5RmxtN">
    <mxGraphModel dx="1388" dy="509" grid="1" gridSize="10" guides="1" tooltips="1" connect="1" arrows="1" fold="1" page="0" pageScale="1" pageWidth="850" pageHeight="1100" math="0" shadow="0">
      <root>
        <mxCell id="0" />
        <mxCell id="1" parent="0" />
        <mxCell id="M7_NmLDgKNie-cv-VQsQ-7" value="" style="group;" parent="1" vertex="1" connectable="0">
          <mxGeometry x="-30" y="280" width="225" height="200" as="geometry" />
        </mxCell>
        <mxCell id="M7_NmLDgKNie-cv-VQsQ-8" value="" style="verticalAlign=top;align=left;spacingTop=8;spacingLeft=2;spacingRight=12;shape=cube;size=10;direction=south;fontStyle=4;html=1;whiteSpace=wrap;" parent="M7_NmLDgKNie-cv-VQsQ-7" vertex="1">
          <mxGeometry x="13.24" width="211.76" height="180" as="geometry" />
        </mxCell>
        <mxCell id="bIzfc3gzfb8wl6DC-FLI-15" value="&lt;b&gt;&lt;font style=&quot;font-size: 12px;&quot;&gt;ServerNode&lt;/font&gt;&lt;/b&gt;" style="text;html=1;align=center;verticalAlign=middle;whiteSpace=wrap;rounded=0;" vertex="1" parent="M7_NmLDgKNie-cv-VQsQ-7">
          <mxGeometry x="89.12" y="9.09090909090909" width="60" height="27.272727272727273" as="geometry" />
        </mxCell>
        <mxCell id="bIzfc3gzfb8wl6DC-FLI-22" value="" style="shadow=0;html=1;strokeColor=default;fillColor=#fcfcfc;labelPosition=center;verticalLabelPosition=bottom;verticalAlign=top;align=center;outlineConnect=0;shape=mxgraph.veeam.2d.folder;flipH=1;" vertex="1" parent="M7_NmLDgKNie-cv-VQsQ-7">
          <mxGeometry x="27.5" y="50" width="70" height="35" as="geometry" />
        </mxCell>
        <mxCell id="bIzfc3gzfb8wl6DC-FLI-23" value="FileStorage" style="text;html=1;align=center;verticalAlign=middle;whiteSpace=wrap;rounded=0;" vertex="1" parent="M7_NmLDgKNie-cv-VQsQ-7">
          <mxGeometry x="30" y="55" width="65" height="30" as="geometry" />
        </mxCell>
        <mxCell id="bIzfc3gzfb8wl6DC-FLI-1" value="" style="strokeWidth=1;html=1;shape=mxgraph.flowchart.database;whiteSpace=wrap;" vertex="1" parent="M7_NmLDgKNie-cv-VQsQ-7">
          <mxGeometry x="140" y="45" width="60" height="40" as="geometry" />
        </mxCell>
        <mxCell id="bIzfc3gzfb8wl6DC-FLI-24" value="MySQL" style="text;html=1;align=center;verticalAlign=middle;whiteSpace=wrap;rounded=0;" vertex="1" parent="M7_NmLDgKNie-cv-VQsQ-7">
          <mxGeometry x="140" y="55" width="60" height="30" as="geometry" />
        </mxCell>
        <mxCell id="bIzfc3gzfb8wl6DC-FLI-7" value="" style="whiteSpace=wrap;html=1;shape=mxgraph.basic.document" vertex="1" parent="M7_NmLDgKNie-cv-VQsQ-7">
          <mxGeometry x="79.12" y="120" width="80" height="50" as="geometry" />
        </mxCell>
        <mxCell id="bIzfc3gzfb8wl6DC-FLI-28" value="" style="endArrow=classic;startArrow=classic;html=1;rounded=0;entryX=0.5;entryY=1;entryDx=0;entryDy=0;exitX=0.167;exitY=-0.001;exitDx=0;exitDy=0;exitPerimeter=0;" edge="1" parent="M7_NmLDgKNie-cv-VQsQ-7" source="bIzfc3gzfb8wl6DC-FLI-7" target="bIzfc3gzfb8wl6DC-FLI-23">
          <mxGeometry width="50" height="50" relative="1" as="geometry">
            <mxPoint x="-80" y="160" as="sourcePoint" />
            <mxPoint x="-30" y="110" as="targetPoint" />
          </mxGeometry>
        </mxCell>
        <mxCell id="bIzfc3gzfb8wl6DC-FLI-29" value="" style="endArrow=classic;startArrow=classic;html=1;rounded=0;entryX=0.25;entryY=1;entryDx=0;entryDy=0;exitX=0.5;exitY=0;exitDx=0;exitDy=0;exitPerimeter=0;" edge="1" parent="M7_NmLDgKNie-cv-VQsQ-7" source="bIzfc3gzfb8wl6DC-FLI-7" target="bIzfc3gzfb8wl6DC-FLI-24">
          <mxGeometry width="50" height="50" relative="1" as="geometry">
            <mxPoint x="100" y="140" as="sourcePoint" />
            <mxPoint x="150" y="90" as="targetPoint" />
          </mxGeometry>
        </mxCell>
        <mxCell id="bIzfc3gzfb8wl6DC-FLI-31" value="FTP" style="text;html=1;align=center;verticalAlign=middle;whiteSpace=wrap;rounded=0;" vertex="1" parent="M7_NmLDgKNie-cv-VQsQ-7">
          <mxGeometry x="35" y="90" width="55" height="30" as="geometry" />
        </mxCell>
        <mxCell id="bIzfc3gzfb8wl6DC-FLI-32" value="JPA" style="text;html=1;align=center;verticalAlign=middle;whiteSpace=wrap;rounded=0;" vertex="1" parent="M7_NmLDgKNie-cv-VQsQ-7">
          <mxGeometry x="120" y="90" width="55" height="30" as="geometry" />
        </mxCell>
        <mxCell id="bIzfc3gzfb8wl6DC-FLI-34" value="FtpServer" style="text;html=1;align=center;verticalAlign=middle;whiteSpace=wrap;rounded=0;" vertex="1" parent="M7_NmLDgKNie-cv-VQsQ-7">
          <mxGeometry x="89.12" y="130" width="60" height="30" as="geometry" />
        </mxCell>
        <mxCell id="M7_NmLDgKNie-cv-VQsQ-20" value="" style="group" parent="1" vertex="1" connectable="0">
          <mxGeometry x="220" y="280" width="170" height="110" as="geometry" />
        </mxCell>
        <mxCell id="M7_NmLDgKNie-cv-VQsQ-21" value="" style="verticalAlign=top;align=left;spacingTop=8;spacingLeft=2;spacingRight=12;shape=cube;size=10;direction=south;fontStyle=4;html=1;whiteSpace=wrap;" parent="M7_NmLDgKNie-cv-VQsQ-20" vertex="1">
          <mxGeometry x="10" width="160" height="110" as="geometry" />
        </mxCell>
        <mxCell id="bIzfc3gzfb8wl6DC-FLI-16" value="&lt;b&gt;ClientNode&lt;/b&gt;" style="text;html=1;align=center;verticalAlign=middle;whiteSpace=wrap;rounded=0;" vertex="1" parent="M7_NmLDgKNie-cv-VQsQ-20">
          <mxGeometry x="60" y="10" width="60" height="30" as="geometry" />
        </mxCell>
        <mxCell id="bIzfc3gzfb8wl6DC-FLI-26" value="" style="whiteSpace=wrap;html=1;shape=mxgraph.basic.document" vertex="1" parent="M7_NmLDgKNie-cv-VQsQ-20">
          <mxGeometry x="50" y="50" width="80" height="50" as="geometry" />
        </mxCell>
        <mxCell id="bIzfc3gzfb8wl6DC-FLI-35" value="FtpClient" style="text;html=1;align=center;verticalAlign=middle;whiteSpace=wrap;rounded=0;" vertex="1" parent="M7_NmLDgKNie-cv-VQsQ-20">
          <mxGeometry x="60" y="60" width="60" height="30" as="geometry" />
        </mxCell>
        <mxCell id="bIzfc3gzfb8wl6DC-FLI-30" value="" style="endArrow=classic;startArrow=classic;html=1;rounded=0;entryX=0;entryY=0.5;entryDx=0;entryDy=0;entryPerimeter=0;exitX=1;exitY=0.5;exitDx=0;exitDy=0;exitPerimeter=0;" edge="1" parent="1" source="bIzfc3gzfb8wl6DC-FLI-7" target="bIzfc3gzfb8wl6DC-FLI-26">
          <mxGeometry width="50" height="50" relative="1" as="geometry">
            <mxPoint x="230" y="480" as="sourcePoint" />
            <mxPoint x="280" y="430" as="targetPoint" />
          </mxGeometry>
        </mxCell>
        <mxCell id="bIzfc3gzfb8wl6DC-FLI-33" value="FTP" style="text;html=1;align=center;verticalAlign=middle;whiteSpace=wrap;rounded=0;" vertex="1" parent="1">
          <mxGeometry x="190" y="380" width="50" height="30" as="geometry" />
        </mxCell>
      </root>
    </mxGraphModel>
  </diagram>
</mxfile>
